<svg xmlns="http://www.w3.org/2000/svg" width="682.667" height="682.667" preserveAspectRatio="xMidYMid meet" version="1.0" viewBox="0 0 512 512"><metadata>Created by potrace 1.14, written by Peter Selinger 2001-2017</metadata><g fill="#000" stroke="none"><path d="M2318 5115 c-1 -1 -39 -5 -83 -9 -44 -4 -89 -9 -100 -11 -11 -3 -40 -7 -63 -9 -84 -9 -257 -48 -357 -81 -294 -95 -486 -208 -676 -395 -216 -212 -353 -490 -386 -780 -12 -116 -6 -371 11 -421 3 -8 7 -27 9 -44 8 -48 17 -85 44 -165 142 -424 514 -733 1133 -943 140 -47 522 -154 610 -171 64 -12 502 -126 560 -146 331 -114 434 -260 348 -493 -25 -68 -94 -150 -167 -196 -142 -92 -368 -145 -611 -145 -122 0 -196 10 -322 42 -97 25 -260 122 -323 193 -128 143 -184 269 -232 520 l-28 141 -84 -7 c-47 -4 -94 -9 -105 -11 -11 -2 -49 -6 -85 -8 -36 -3 -84 -7 -106 -10 -22 -2 -78 -8 -125 -11 -47 -4 -92 -9 -100 -10 -8 -2 -51 -6 -95 -10 -44 -4 -100 -9 -125 -11 -68 -7 -117 -12 -208 -19 -46 -4 -91 -8 -100 -10 -9 -2 -36 -4 -60 -4 -36 -1 -43 -4 -38 -18 4 -16 14 -101 21 -178 2 -24 27 -180 40 -245 42 -214 165 -503 296 -690 131 -189 338 -373 548 -487 170 -93 458 -192 631 -218 24 -4 47 -8 50 -10 3 -2 33 -6 65 -10 33 -3 67 -8 75 -10 68 -19 617 -27 777 -12 391 36 735 140 993 300 368 229 598 557 692 990 32 146 32 458 0 627 -102 543 -418 880 -1052 1123 -230 88 -408 137 -1066 295 -522 126 -719 266 -640 456 58 138 335 234 661 228 197 -4 328 -29 438 -84 144 -72 210 -178 257 -413 23 -113 47 -188 59 -181 3 2 83 7 176 10 94 4 213 8 265 11 52 2 147 7 210 9 256 12 417 19 460 21 25 2 64 3 87 4 l43 1 -5 88 c-13 239 -28 339 -70 486 -158 546 -556 903 -1176 1055 -140 34 -131 33 -379 67 -46 6 -585 15 -592 9z" transform="translate(0.000000,512.000000) scale(0.100000,-0.100000)"/></g></svg>